# xmcd
#
# Track frame offsets: 
#        150
#        11069
#        26317
#        40931
#        56237
#        71468
#        85375
#        101903
#        113961
#        133368
#        152622
#        169553
#        186852
#
# Disc length: 2679 seconds
#
# Revision: 0
# Processed by: cddbd v1.5.2PL0 Copyright (c) Steve Scherf et al.
# Submitted via: ExactAudioCopy v1.3
#
DISCID=b00a750d
DTITLE=Trip Hunt - Ride The Blue Wind -  A Tribute To Townes Van Zandt
DYEAR=2005
DGENRE=Blues
TTITLE0=Lungs
TTITLE1=Cowboy Junkies Lament
TTITLE2=Waitin' Round To Die
TTITLE3=Highway Kind
TTITLE4=I'll Be Here In The Mornin'
TTITLE5=Many A Fine Lady
TTITLE6=Marie
TTITLE7=If I Needed You
TTITLE8=Tower Song
TTITLE9=Tecumseh Valley
TTITLE10=Flyin' SHoes
TTITLE11=Pancho and Lefty
TTITLE12=White Freightliner Blues
EXTD=
EXTT0=
EXTT1=
EXTT2=
EXTT3=
EXTT4=
EXTT5=
EXTT6=
EXTT7=
EXTT8=
EXTT9=
EXTT10=
EXTT11=
EXTT12=
PLAYORDER=
